<svg width="52" height="16" viewBox="0 0 52 15" fill="none" xmlns="http://www.w3.org/2000/svg">
<path d="M50.9997 8.00003C50.9997 14.4 41.15 16 28.9997 16C16.8494 16 20.5002 13.485 20.5002 9.06669C20.5002 4.64842 16.3497 2.13335 28.5 2.13335C34.4998 1.6 50.9997 1.60003 50.9997 8.00003Z" fill="white"/>
<path d="M16.5 9.06668C16.5 13.8667 13.7467 16 8.5 16C3.25329 16 0.5 13.4292 0.5 9.60001C0.5 5.77084 3.25329 3.20001 8.5 3.20001C13.7467 3.20001 16.5 3.73335 16.5 9.06668Z" fill="white"/>
<path d="M10.5568 6.92045L9.65341 7.17614C9.59659 7.02557 9.51278 6.87926 9.40199 6.73722C9.29403 6.59233 9.14631 6.47301 8.95881 6.37926C8.77131 6.28551 8.53125 6.23864 8.23864 6.23864C7.83807 6.23864 7.50426 6.33097 7.23722 6.51562C6.97301 6.69744 6.84091 6.92898 6.84091 7.21023C6.84091 7.46023 6.93182 7.65767 7.11364 7.80256C7.29545 7.94744 7.57955 8.06818 7.96591 8.16477L8.9375 8.40341C9.52273 8.54545 9.95881 8.76278 10.2457 9.0554C10.5327 9.34517 10.6761 9.71875 10.6761 10.1761C10.6761 10.5511 10.5682 10.8864 10.3523 11.1818C10.1392 11.4773 9.84091 11.7102 9.45739 11.8807C9.07386 12.0511 8.62784 12.1364 8.11932 12.1364C7.4517 12.1364 6.89915 11.9915 6.46165 11.7017C6.02415 11.4119 5.74716 10.9886 5.63068 10.4318L6.58523 10.1932C6.67614 10.5455 6.84801 10.8097 7.10085 10.9858C7.35653 11.1619 7.69034 11.25 8.10227 11.25C8.57102 11.25 8.94318 11.1506 9.21875 10.9517C9.49716 10.75 9.63636 10.5085 9.63636 10.2273C9.63636 10 9.55682 9.80966 9.39773 9.65625C9.23864 9.5 8.99432 9.38352 8.66477 9.30682L7.57386 9.05114C6.97443 8.90909 6.53409 8.68892 6.25284 8.39062C5.97443 8.08949 5.83523 7.71307 5.83523 7.26136C5.83523 6.89205 5.93892 6.56534 6.14631 6.28125C6.35653 5.99716 6.64205 5.77415 7.00284 5.61222C7.36648 5.45028 7.77841 5.36932 8.23864 5.36932C8.88636 5.36932 9.39489 5.51136 9.7642 5.79545C10.1364 6.07955 10.4006 6.45455 10.5568 6.92045Z" fill="black"/>
</svg>
